<?xml version="1.0" encoding="UTF-8" standalone="no"?><!DOCTYPE svg PUBLIC "-//W3C//DTD SVG 1.1//EN" "http://www.w3.org/Graphics/SVG/1.1/DTD/svg11.dtd"><svg width="100%" height="100%" viewBox="0 0 1667 1667" version="1.1" xmlns="http://www.w3.org/2000/svg" xmlns:xlink="http://www.w3.org/1999/xlink" xml:space="preserve" xmlns:serif="http://www.serif.com/" style="fill-rule:evenodd;clip-rule:evenodd;stroke-linejoin:round;stroke-miterlimit:2;"><rect id="Artboard18" x="0.354" y="0.304" width="1664.77" height="1664.77" style="fill:none;"/><path d="M1277.88,626.449l-105.046,-140.059l-161.588,32.325l-87.012,435.159l-236.016,-236.021l-108.205,281.316l-255.437,-257.829l0,383.53l62.795,156.966l788.217,0l57.909,-157.929l-82.909,-497.475l127.292,0.017Zm-39.712,-19.859l-95.996,0l-98.746,-74.054l121.046,-24.204l73.696,98.258Zm-542.384,146.925l223.763,223.763l-27.146,135.758l-334.896,0l138.279,-359.521Zm-123.6,266l-35.97,93.538l-191.78,-0.017l0,-323.421l227.75,229.9Zm589.533,242.479l-760.904,0l-51.642,-129.1l859.88,0l-47.334,129.1Zm49.838,-148.958l-298.908,0l113.703,-568.492l103.372,77.542l81.833,490.95Z" style="fill:#005f8a;fill-rule:nonzero;"/><rect x="1147.18" y="533.945" width="19.859" height="59.588" style="fill:#005f8a;fill-rule:nonzero;"/></svg>