<?xml version="1.0" encoding="UTF-8" standalone="no"?><!DOCTYPE svg PUBLIC "-//W3C//DTD SVG 1.1//EN" "http://www.w3.org/Graphics/SVG/1.1/DTD/svg11.dtd"><svg width="100%" height="100%" viewBox="0 0 1671 1667" version="1.1" xmlns="http://www.w3.org/2000/svg" xmlns:xlink="http://www.w3.org/1999/xlink" xml:space="preserve" xmlns:serif="http://www.serif.com/" style="fill-rule:evenodd;clip-rule:evenodd;stroke-linejoin:round;stroke-miterlimit:2;"><rect id="Artboard26" x="2.812" y="0.23" width="1664.77" height="1664.77" style="fill:none;"/><path d="M1303.73,461.7l-166.734,-46.616l-60.091,300.424l-209.062,0l-3.566,32.113l-283.285,-436.279l-250.424,213.279l-0.226,308.025l275.439,170.833l231.215,0l0,268.117l268.117,0l-100.325,-133.758l-28.125,-84.392l55.729,-139.337l183.154,-0l-43.912,-327.705l132.08,0l0.016,-124.704Zm-232.454,273.663l-51.663,155.567l-144.641,-59.78l10.641,-95.787l185.663,-0Zm-463.312,246.112l-143.783,-89.175l370.799,-87.241l-227.016,176.416Zm249.021,-168.375l-18.947,170.525l-200.47,0l219.417,-170.525Zm-15.804,-64.567l-411.068,-282.603l146.534,-124.788l264.534,407.391Zm-426.725,-269.27l414.146,284.716l-478.272,-107.912l0.08,-122.267l64.046,-54.537Zm-64.142,197.167l482.208,108.803l-392.187,92.271l-90.138,-55.908l0.117,-145.166Zm636.65,470.75l78.42,104.558l-208.529,-0l-0,-188.671l99.3,-0l0,-8.317l30.809,92.43Zm-30.793,-95.963l0,-8.025l-99.3,-0l0,-49.104l15.823,-142.413l140.136,57.908l-56.659,141.634Zm236.689,-156.967l-153.422,0l55.029,-165.687l0.197,-0.588l28.321,-141.571l28.629,0l41.246,307.846Zm91.011,-327.7l-156.915,0l25.307,-126.579l131.608,36.8l0,89.779Z" style="fill:#005f8a;fill-rule:nonzero;"/></svg>