<?xml version="1.0" encoding="UTF-8" standalone="no"?><!DOCTYPE svg PUBLIC "-//W3C//DTD SVG 1.1//EN" "http://www.w3.org/Graphics/SVG/1.1/DTD/svg11.dtd"><svg width="100%" height="100%" viewBox="0 0 1667 1671" version="1.1" xmlns="http://www.w3.org/2000/svg" xmlns:xlink="http://www.w3.org/1999/xlink" xml:space="preserve" xmlns:serif="http://www.serif.com/" style="fill-rule:evenodd;clip-rule:evenodd;stroke-linejoin:round;stroke-miterlimit:2;"><rect id="Artboard4" x="0.354" y="3.32" width="1664.77" height="1664.77" style="fill:none;"/><rect x="989.901" y="552.709" width="59.588" height="19.859" style="fill:#005f8a;fill-rule:nonzero;"/><path d="M1237.05,666.89c-0.28,0 -0.555,0.018 -0.829,0.018l-0,-114.213l-88.184,-66.129c-24.238,-18.196 -54.284,-28.221 -84.604,-28.221l-52.554,-0l-91.084,242.888l-327.229,344.449l-242.758,266.684l195.558,-0l85.109,-89.829l-0,0.458l228.399,0l0,109.225l19.859,-0l-0,-109.225l19.854,0c27.458,0 54.088,-3.634 79.446,-10.417l-0,119.642l19.849,-0l0,-125.667c121.18,-41.404 208.534,-156.396 208.534,-291.404c0,-40.071 -3.337,-80.437 -9.929,-119.987l-8.429,-50.604c-2.408,-14.422 1.646,-29.101 11.1,-40.251c9.458,-11.166 23.258,-17.562 37.892,-17.562l78.612,0l-0,-19.855l-78.612,0Zm-700.23,625.601l-142.075,-0l205.18,-225.392c24.037,23.438 56.279,36.721 90.133,36.721c9.704,-0 19.258,-1.092 28.516,-3.175l-181.754,191.846Zm361.767,-89.371l-249.738,-0l115.9,-122.346l0.017,-0l284.521,-300.342c20.525,-21.666 49.434,-34.099 79.312,-34.099l39.683,-0c0.068,0.503 0.13,0.991 0.213,1.495l8.429,50.604c6.413,38.475 9.655,77.734 9.655,116.717c-0.017,158.787 -129.201,287.971 -287.992,287.971Zm285.417,-511.655c-8.542,10.092 -13.913,22.234 -15.754,34.997l-39.663,-0c-35.309,-0 -69.471,14.695 -93.725,40.313l-278.658,294.174l-0.013,0l-2.296,2.425c-18.654,13.459 -40.708,20.588 -63.837,20.588c-28.808,-0 -56.234,-11.375 -76.609,-31.413l323.534,-340.559l87.646,-233.774l38.804,-0c26.058,-0 51.871,8.613 72.687,24.238l80.242,60.17l-0,107.437c-12.467,3.876 -23.712,11.2 -32.358,21.404Z" style="fill:#005f8a;fill-rule:nonzero;"/></svg>