<?xml version="1.0" encoding="UTF-8" standalone="no"?><!DOCTYPE svg PUBLIC "-//W3C//DTD SVG 1.1//EN" "http://www.w3.org/Graphics/SVG/1.1/DTD/svg11.dtd"><svg width="100%" height="100%" viewBox="0 0 1667 1671" version="1.1" xmlns="http://www.w3.org/2000/svg" xmlns:xlink="http://www.w3.org/1999/xlink" xml:space="preserve" xmlns:serif="http://www.serif.com/" style="fill-rule:evenodd;clip-rule:evenodd;stroke-linejoin:round;stroke-miterlimit:2;"><rect id="Artboard22" x="0" y="2.703" width="1664.77" height="1664.77" style="fill:none;"/><path d="M1358.36,1077.12l-128.466,-0l76.82,-102.446l-15.883,-11.912l-85.775,114.358l-345.067,-0l9.7,-2.008c64.305,-10.754 122.917,-44.075 165.055,-93.825c42.187,-49.788 65.429,-113.155 65.429,-178.421l-0,-271.096l208.529,-0l-0,-9.929c-0,-87.613 -71.271,-158.888 -158.888,-158.888l-224.362,0c-97.95,0 -179.967,73.409 -190.792,170.754l-8.95,80.584c-28.596,17.233 -52.962,42.933 -69.058,74.558l-194.858,388.271l-116.325,-0l-0,19.85l106.366,0l-24.416,48.633l-0.375,0.834c-3.646,9.341 -2.571,19.35 2.945,27.437c5.584,8.188 15.121,13.283 24.871,13.283c6.659,0 13.038,-2.279 18.313,-6.495l70.896,-54.442l-0,209.912l9.929,0c56.316,0 109.7,-21.483 150.308,-60.483c40.625,-38.996 64.242,-91.471 66.538,-147.737l1.237,-30.942l586.279,0l0,-19.85Zm-258.187,-694.292l49.658,0c73.325,0 133.563,57.046 138.671,129.1l-188.329,-0.016l-0,-129.084Zm-345.75,153.075c9.683,-87.271 83.216,-153.075 171.029,-153.075l154.85,0l-0,420.038c-0,125.746 -90.025,232.029 -214.063,252.7l-104.72,21.554l-153.534,-0l208.546,-160.225c16.454,-13.121 34.733,-26.304 59.246,-42.742c50.925,-34.146 79.75,-93.475 75.258,-154.816c-3.662,-49.905 -29.037,-90.805 -67.904,-109.492c-22.021,-12.842 -47.312,-19.629 -73.175,-19.629c-21.679,-0 -43.067,4.658 -63.037,13.216l7.504,-67.529Zm-293.475,629.134c-1.888,1.516 -3.938,2.279 -6.071,2.279c-3.238,-0 -6.558,-1.804 -8.479,-4.621c-1.238,-1.808 -2.375,-4.754 -0.992,-8.642l228.988,-456.233c27.145,-53.304 80.354,-87.746 135.562,-87.746c22.8,0 44.154,5.763 63.492,17.121l0.766,0.408c32.567,15.496 53.871,50.342 57.03,93.196c3.987,54.233 -21.5,106.692 -66.505,136.867c-24.983,16.762 -43.666,30.241 -60.416,43.604l-57.617,44.271l25.65,-153.925l-19.596,-3.271l-29.15,174.937l-262.662,201.755Zm290.054,-37.921c-4.167,102.75 -85.496,183.917 -187.075,188.916l-0,-205.058l18.212,-14.004l170.067,0l-1.204,30.146Z" style="fill:#005f8a;fill-rule:nonzero;"/><rect x="931.356" y="462.274" width="19.858" height="59.587" style="fill:#005f8a;fill-rule:nonzero;"/></svg>