<?xml version="1.0" encoding="UTF-8" standalone="no"?><!DOCTYPE svg PUBLIC "-//W3C//DTD SVG 1.1//EN" "http://www.w3.org/Graphics/SVG/1.1/DTD/svg11.dtd"><svg width="100%" height="100%" viewBox="0 0 1667 1667" version="1.1" xmlns="http://www.w3.org/2000/svg" xmlns:xlink="http://www.w3.org/1999/xlink" xml:space="preserve" xmlns:serif="http://www.serif.com/" style="fill-rule:evenodd;clip-rule:evenodd;stroke-linejoin:round;stroke-miterlimit:2;"><rect id="Artboard11" x="0.354" y="1.488" width="1664.77" height="1664.77" style="fill:none;"/><path d="M1065.28,1062.44l162.953,-0l0,-246.417c0,-61.133 -24.316,-118.066 -68.454,-160.304c-40.937,-39.163 -93.541,-60.758 -149.433,-61.621c4.087,-16.7 6.154,-33.87 6.154,-51.22c0,-57.505 -22.396,-111.576 -63.054,-152.23c-40.659,-40.658 -94.708,-63.054 -152.213,-63.054c-118.704,0 -215.283,96.583 -215.283,215.284c0,17.92 2.213,35.645 6.558,52.862c-56.25,0.783 -109.212,22.575 -150.274,62.063c-43.851,42.203 -68.005,98.974 -68.005,159.895l0,244.742l162.958,-0c19.692,39.129 45.313,73.521 75.375,101.433l-0.016,37.579c0,43.8 -35.646,79.446 -79.446,79.446l-0,19.854c54.754,0 99.3,-44.545 99.3,-99.3l-0,-20.604c48.521,38.121 106.546,60.338 168.833,60.338c62.288,-0 120.313,-22.217 168.812,-60.338l0,20.604c0,54.755 44.551,99.3 99.3,99.3l0,-19.854c-43.795,0 -79.441,-35.646 -79.441,-79.446l0,-37.579c30.063,-27.912 55.679,-62.321 75.376,-101.433Zm143.099,-246.417l0,226.546l-133.775,-0c22.004,-50.571 34.458,-107.975 34.458,-168.817c0,-97.558 -32.537,-190.804 -89.862,-259.47c47.412,2.878 91.829,22.262 126.859,55.775c40.182,38.462 62.32,90.3 62.32,145.966Zm-407.146,-468.575c52.196,0 101.267,20.329 138.184,57.246c12.758,12.758 23.533,26.966 32.179,42.267c-79.25,3.483 -145.967,56.071 -170.363,128.029c-24.383,-71.908 -91.034,-124.479 -170.217,-128.029c33.58,-59.359 97.284,-99.513 170.217,-99.513Zm-178.745,116.475l-0,2.7c93.082,0 168.816,75.734 168.816,168.816l19.859,0c-0,-93.082 75.728,-168.816 168.812,-168.816l-0,-2.996c10.921,24.625 16.683,51.5 16.666,79.251c0,20.004 -3.008,39.728 -8.949,58.641l-1.759,5.584l4.037,4.245c14.321,15.026 27.23,31.563 38.671,49.334c-55.471,39.504 -88.395,103.141 -88.395,171.533l-0,130.908c-0,76.663 -62.371,139.029 -139.029,139.029c-76.663,0 -139.03,-62.366 -139.03,-139.029l0,-130.908c0,-68.392 -32.928,-132.029 -88.395,-171.533c11.441,-17.771 24.35,-34.326 38.671,-49.334l4.037,-4.245l-1.759,-5.584c-5.941,-18.913 -8.949,-38.637 -8.949,-58.641c0.012,-28.092 5.97,-54.789 16.696,-78.955Zm-228.401,578.646l0,-224.871c0,-55.454 21.988,-107.162 61.913,-145.574c34.687,-33.38 78.712,-52.863 125.783,-56.071c-56.429,68.491 -88.396,160.97 -88.396,257.699c0,60.825 12.467,118.229 34.471,168.817l-133.771,-0Zm119.159,-168.817c0,-70.621 50.241,-196.012 50.241,-196.012c0,-0 78.859,93.033 78.859,154.475l-0,130.908c-0,87.617 71.27,158.888 158.887,158.888c87.612,-0 158.888,-71.271 158.888,-158.888l0,-130.908c0,-61.442 29.346,-118.621 78.837,-154.475c32.409,57.242 50.246,125.391 50.246,196.012c0,191.65 -129.184,347.559 -287.971,347.559c-158.792,0.017 -287.987,-155.909 -287.987,-347.559Z" style="fill:#005f8a;fill-rule:nonzero;"/></svg>