<?xml version="1.0" encoding="UTF-8" standalone="no"?><!DOCTYPE svg PUBLIC "-//W3C//DTD SVG 1.1//EN" "http://www.w3.org/Graphics/SVG/1.1/DTD/svg11.dtd"><svg width="100%" height="100%" viewBox="0 0 1671 1667" version="1.1" xmlns="http://www.w3.org/2000/svg" xmlns:xlink="http://www.w3.org/1999/xlink" xml:space="preserve" xmlns:serif="http://www.serif.com/" style="fill-rule:evenodd;clip-rule:evenodd;stroke-linejoin:round;stroke-miterlimit:2;"><rect id="Artboard6" x="2.487" y="0" width="1664.77" height="1664.77" style="fill:none;"/><rect x="1051.34" y="581.675" width="59.588" height="19.858" style="fill:#005f8a;fill-rule:nonzero;"/><path d="M1260.75,492.304l-162.029,-28.696l-0.504,-0.083c-65.071,-8.138 -125.829,33.512 -141.388,96.858l-19.108,90.446c-49.675,4.771 -111.9,37.746 -176.955,94.125c-62.012,53.729 -120.408,123.471 -156.216,186.558c-22.642,39.892 -45.491,93.488 -30.813,128.904l-223.471,256.104l168.963,0l89.371,-89.37l224.288,-0.017l-0,109.229l19.853,0l0,-109.229l49.659,0c17.171,0 33.742,-2.004 49.658,-5.471l-0,114.7l19.859,0l-0,-119.825c66.324,-20.066 118.879,-64.258 148.141,-93.521c54.771,-54.754 90.171,-146.404 90.171,-233.512l0,-235.433c0,-52.346 25.683,-100 68.683,-127.492c14.975,-9.571 28.634,-14.438 40.563,-14.438l0,-19.854l-58.725,0.017Zm-638.917,449.021c34.751,-61.229 91.571,-129.038 151.954,-181.363c66.913,-57.975 129.475,-89.908 176.187,-89.908c7.197,-0 14.08,0.762 20.442,2.296c24.272,5.791 41.213,27.7 41.213,53.304c0,160.204 -99.495,287.35 -259.667,331.85c-37.5,10.416 -77.083,15.708 -117.679,15.708c-20.195,0 -33.687,-5.504 -40.15,-16.358c-12.354,-20.654 -2.246,-62.763 27.7,-115.529Zm-110.838,355.325l-117.041,-0l191.387,-219.304c11.071,10.433 27.443,15.737 48.93,15.737c30.208,-0 59.912,-2.833 88.671,-8.383l-211.947,211.95Zm595.018,-187.663c-36.717,36.7 -111.979,98.288 -203.63,98.288l-273.924,-0l131.361,-131.363c78.96,-22.446 146.03,-65.625 194.11,-124.983c39.716,-49.059 64.778,-107.438 73.795,-171.125l42.512,0.437c0.717,0.017 1.433,0.017 2.167,0.017c33.725,0 79.917,-13.054 105.046,-38.592l12.938,-11.979l-0,159.8c-0.017,82.113 -33.138,168.263 -84.375,219.5Zm84.358,-454.916l-0,48.566l-26.609,24.625l-0.358,0.342c-21.471,21.958 -63.867,33.254 -92.921,32.779l-40.529,-0.421c0.996,-11.296 1.517,-22.737 1.517,-34.308c-0,-34.85 -23.229,-64.7 -56.463,-72.625c-5.404,-1.288 -11.083,-2.1 -16.929,-2.525l18.066,-85.563c13.184,-53.4 64.454,-88.491 119.355,-81.771l163.491,28.955l5.696,-0c-46.612,31.512 -74.316,84.245 -74.316,141.946Z" style="fill:#005f8a;fill-rule:nonzero;"/></svg>