<?xml version="1.0" encoding="UTF-8" standalone="no"?><!DOCTYPE svg PUBLIC "-//W3C//DTD SVG 1.1//EN" "http://www.w3.org/Graphics/SVG/1.1/DTD/svg11.dtd"><svg width="100%" height="100%" viewBox="0 0 1667 1671" version="1.1" xmlns="http://www.w3.org/2000/svg" xmlns:xlink="http://www.w3.org/1999/xlink" xml:space="preserve" xmlns:serif="http://www.serif.com/" style="fill-rule:evenodd;clip-rule:evenodd;stroke-linejoin:round;stroke-miterlimit:2;"><rect id="Artboard17" x="0.473" y="3.624" width="1664.77" height="1664.77" style="fill:none;"/><rect x="798.237" y="606.636" width="19.859" height="59.588" style="fill:#005f8a;fill-rule:nonzero;"/><rect x="1036.57" y="606.636" width="19.858" height="59.588" style="fill:#005f8a;fill-rule:nonzero;"/><path d="M1233.72,576.836c-15.025,-155.812 -146.696,-278.046 -306.384,-278.046c-159.7,0 -291.354,122.234 -306.395,278.046l-1.446,0l-0,178.742c-0,85.5 15.267,162.55 45.392,229.004c28.858,63.654 71.499,118.033 126.724,161.587c104.33,82.292 254.284,125.784 433.63,125.784l9.925,-0l-0,-695.117l-1.446,0Zm-306.384,-258.187c121.846,-0 226.255,76.058 268.246,183.187c-29.15,-33.125 -71.808,-54.088 -119.3,-54.088c-68.183,0 -126.45,43.18 -148.958,103.613c-22.496,-60.446 -80.763,-103.613 -148.946,-103.613c-47.492,0 -90.15,20.963 -119.283,54.105c41.992,-107.146 146.4,-183.204 268.241,-183.204Zm-287.987,436.929l-0,-40.2c42.938,113.312 150.912,194.887 278.125,198.908c0.717,21.925 5.6,76.629 34.358,138.9c21.471,46.5 51.888,87.5 90.384,121.859c34.112,30.437 74.675,55.633 121.029,75.291c-333.955,-19.287 -523.896,-197.166 -523.896,-494.758Zm575.962,492.983c-117.629,-37.825 -200.05,-106.021 -245.071,-202.862c-27.129,-58.35 -32.028,-110.709 -32.858,-131.413c127.129,-4.1 235.009,-85.646 277.913,-198.892l0.016,533.167Zm-287.975,-353.954c-158.787,-0 -287.97,-129.183 -287.97,-287.971c-0,-76.658 62.371,-139.029 139.029,-139.029c76.662,0 139.033,62.371 139.033,139.029l19.854,0c0,-76.658 62.371,-139.029 139.029,-139.029c76.663,0 139.034,62.371 139.034,139.029c-0.034,158.788 -129.217,287.971 -288.009,287.971Z" style="fill:#005f8a;fill-rule:nonzero;"/></svg>