<?xml version="1.0" encoding="UTF-8" standalone="no"?><!DOCTYPE svg PUBLIC "-//W3C//DTD SVG 1.1//EN" "http://www.w3.org/Graphics/SVG/1.1/DTD/svg11.dtd"><svg width="100%" height="100%" viewBox="0 0 1671 1667" version="1.1" xmlns="http://www.w3.org/2000/svg" xmlns:xlink="http://www.w3.org/1999/xlink" xml:space="preserve" xmlns:serif="http://www.serif.com/" style="fill-rule:evenodd;clip-rule:evenodd;stroke-linejoin:round;stroke-miterlimit:2;"><rect id="Artboard20" x="2.487" y="1.151" width="1664.77" height="1664.77" style="fill:none;"/><path d="M1128.74,505.779c18.408,-15.363 32.263,-22.134 39.342,-23.438l88.475,0l-0,-19.854l-139.437,-0c-5.092,-66.554 -60.838,-119.158 -128.675,-119.158c-58.467,-0 -107.946,39.079 -123.767,92.462l-415.817,455.408l-185.337,215.055l0,22.004l350.666,-131.888c52.688,44.842 118.168,72.513 187.892,79.821l49.95,132.583l18.587,-7l-46.712,-123.941c5.175,0.229 10.371,0.341 15.563,0.341c30.579,0 60.837,-3.92 90.087,-11.587l59.633,142.529l18.329,-7.667l-58.775,-140.445c101.143,-32.763 180.159,-109.175 212.617,-206.25c10.447,-31.267 15.738,-63.884 15.738,-96.971c0,-50.067 -11.833,-98.034 -35.187,-142.596c-4.201,-7.942 -8.663,-15.642 -13.267,-22.85l-0.717,-1.125l-0.991,-0.896c-11.85,-10.742 -18.459,-26.267 -18.118,-42.592c0.342,-16.375 7.6,-31.658 19.921,-41.945Zm-12.483,-15.446c0.375,-2.638 0.655,-5.304 0.846,-7.992l9.329,0c-3.875,2.867 -7.341,5.633 -10.175,7.992Zm-127.828,-127.146c60.236,-0 109.224,49.004 109.224,109.225c-0,60.242 -49.004,109.229 -109.224,109.229c-60.238,0 -109.23,-49.004 -109.23,-109.229c-0,-60.238 49.004,-109.225 109.23,-109.225Zm-379.268,604.587c-35.125,-3.679 -68.716,-16.179 -99.837,-37.17c-13.9,-9.363 -27.145,-20.413 -39.534,-32.896l166.993,-182.896c17.512,3.875 35.562,5.862 53.729,5.862c78.691,0 152.083,-37.337 198.599,-99.304l0,22.334c0,179.329 -115.82,325.212 -258.187,325.212c-7.342,0.017 -14.667,-0.375 -21.763,-1.142Zm279.967,-412.97l0,30.404c-40.608,71.354 -116.459,115.608 -198.6,115.608c-12.812,0 -25.554,-1.092 -38.037,-3.175l206.883,-226.596c-0,0.459 -0.034,0.913 -0.034,1.384c0,31.283 11.2,59.995 29.788,82.375Zm-432.504,357.795c13.037,13.038 26.983,24.609 41.6,34.471c28.355,19.129 58.675,31.759 90.334,37.713l-287.259,108.041l155.325,-180.225Zm476.154,132.538l-0.079,0.017c-0.1,0.029 -0.18,0.045 -0.279,0.079l-0.08,0.016c-30.012,8.642 -61.25,13.038 -92.854,13.038c-74.775,-0 -146.274,-24.604 -203.304,-69.596c72.738,-1.646 140.771,-37.642 192.105,-101.808c52.033,-65.038 80.695,-151.4 80.695,-243.179l0,-69.646c21.925,17.171 49.496,27.458 79.447,27.458c16.191,0 31.687,-3.029 45.995,-8.496c-16.129,33.054 -25.246,67.25 -26.042,98.829c-0.066,2 -0.083,4.034 -0.083,6.088c-0,81.25 43.246,157.175 113.02,198.825c-38.961,70.704 -106.508,124.579 -188.541,148.375Zm179.816,-441.067c4.071,6.463 8.025,13.313 11.755,20.363c21.825,41.65 32.892,86.521 32.892,133.333c-0,30.942 -4.946,61.442 -14.713,90.679c-3.5,10.442 -7.6,20.634 -12.208,30.55c-63.1,-38.221 -102.163,-107.25 -102.163,-181.075c0,-1.841 0.017,-3.662 0.08,-5.521c0.962,-37.579 14.941,-79.475 39.358,-118.129c7.974,-6.2 15.183,-13.316 21.516,-21.191c1.059,19.483 9.409,37.741 23.483,50.991Z" style="fill:#005f8a;fill-rule:nonzero;"/><rect x="958.638" y="462.487" width="59.588" height="19.858" style="fill:#005f8a;fill-rule:nonzero;"/></svg>