<?xml version="1.0" encoding="UTF-8" standalone="no"?><!DOCTYPE svg PUBLIC "-//W3C//DTD SVG 1.1//EN" "http://www.w3.org/Graphics/SVG/1.1/DTD/svg11.dtd"><svg width="100%" height="100%" viewBox="0 0 1671 1667" version="1.1" xmlns="http://www.w3.org/2000/svg" xmlns:xlink="http://www.w3.org/1999/xlink" xml:space="preserve" xmlns:serif="http://www.serif.com/" style="fill-rule:evenodd;clip-rule:evenodd;stroke-linejoin:round;stroke-miterlimit:2;"><rect id="Artboard12" x="2.812" y="1.488" width="1664.77" height="1664.77" style="fill:none;"/><path d="M1303.73,969.624l-337.321,0l-0,-112.904c-0,-26.221 -5.237,-51.013 -15.558,-73.7c-8.496,-18.65 -21.925,-39.275 -42.837,-53.921l-0,-203.958c-0,-66.679 -35.305,-128.221 -92.154,-160.579c-68.022,-38.705 -118.05,-19.351 -158.025,4.687c-26.35,15.838 -47.885,38.104 -63.168,64.146l-45.816,0c-54.659,0 -99.121,44.467 -99.121,99.121l0,85.871l19.854,-0l-0,-49.659l99.3,0l-0,284.896c-0,31.579 5.371,61.8 15.95,89.829c3.45,9.129 7.392,17.838 11.721,26.188l-265.983,-0.017l0,137.304l464.712,0l43.733,203.288l138.85,-6.263l-28.495,-161.883l26.283,4.867l-4.05,-40.009l77.75,0l89.37,178.746l139.08,0l-59.587,-178.746l85.512,0l-0,-137.304Zm-635.658,-583.366c36.817,-22.134 79.02,-37.988 137.97,-4.442c43.213,24.608 72.447,68.212 80.097,117.479c-24.238,65.383 -86.963,109.167 -156.918,109.167l-140.462,-0l0,-80.538c0,-57.958 30.387,-112.237 79.313,-141.666Zm-198.471,162.616l0,-16.358c0,-43.7 35.562,-79.263 79.262,-79.263l35.68,0c-10.142,23.208 -15.642,48.617 -15.642,74.671l0,20.95l-99.3,0Zm119.158,79.442l140.48,-0c65.446,-0 125.241,-34.275 158.916,-88.279l-0,178.154c-12.954,-5.371 -28.058,-8.609 -45.637,-8.609c-12.238,0 -25.342,1.613 -38.963,4.788c-4.071,0.633 -30.538,5.337 -56.546,22.816c-25.925,17.434 -56.133,51.125 -52.879,112.613c0.487,9.346 6.25,69.792 19.842,112.584c11.212,35.287 28.87,74.737 56.425,106.641c-46.271,-8.221 -130.613,-36.346 -166.975,-132.616c-9.733,-25.767 -14.663,-53.634 -14.663,-82.801l0,-225.291Zm-238.329,361.166l257.729,0c22.071,33.659 52.409,59.751 90.721,77.834c21.471,10.137 42.304,16.158 59.654,19.742l-408.104,-0l-0,-97.576Zm603.938,295.638l-99.479,4.491l-39.164,-182.079c18.426,10.938 39.617,18.734 64.001,21.988c5.433,0.733 12.579,1.758 19.646,3.254l29.149,5.404l25.847,146.942Zm-51.008,-171.792c-7.684,-1.629 -15.267,-2.72 -21.014,-3.5c-86.949,-11.637 -129.266,-89.879 -149.449,-153.45c-12.922,-40.708 -18.538,-100.066 -18.925,-107.62c-5.275,-99.43 88.85,-114.226 92.837,-114.792l0.896,-0.163c12.27,-2.9 23.987,-4.346 34.813,-4.346c41.212,0 71.583,20.801 90.249,61.8c9.151,20.084 13.788,42.104 13.788,65.463l0,170.587c0,19.663 1.008,39.567 2.996,59.163l3.658,36.117l-49.849,-9.259Zm380.516,-26.27l-93.229,-0l59.588,178.741l-99.238,0.017l-89.371,-178.742l-92.042,-0l-0.259,-2.604c-1.92,-18.929 -2.899,-38.154 -2.899,-57.146l0,-37.825l317.45,-0.017l0,97.576Z" style="fill:#005f8a;fill-rule:nonzero;"/><rect x="697.991" y="489.286" width="59.588" height="19.858" style="fill:#005f8a;fill-rule:nonzero;"/></svg>