<?xml version="1.0" encoding="UTF-8" standalone="no"?><!DOCTYPE svg PUBLIC "-//W3C//DTD SVG 1.1//EN" "http://www.w3.org/Graphics/SVG/1.1/DTD/svg11.dtd"><svg width="100%" height="100%" viewBox="0 0 1667 1667" version="1.1" xmlns="http://www.w3.org/2000/svg" xmlns:xlink="http://www.w3.org/1999/xlink" xml:space="preserve" xmlns:serif="http://www.serif.com/" style="fill-rule:evenodd;clip-rule:evenodd;stroke-linejoin:round;stroke-miterlimit:2;"><rect id="Artboard7" x="0.179" y="0" width="1664.77" height="1664.77" style="fill:none;"/><path d="M1309.01,425.701c-8.512,-8.508 -21.125,-12.825 -37.5,-12.825c-31.508,0 -79.767,16.18 -143.454,48.08l-3.305,1.662l-26.678,63.963l-41.975,-26.692l-5.226,3.029c-11.312,6.559 -22.954,13.492 -34.616,20.571c-15.446,9.392 -31.271,19.921 -47.026,31.3l-0.345,0.246l-105.888,91.354l-0.308,0.279c-2.912,2.734 -3.971,3.646 -4.754,4.313c-1.396,1.204 -2.196,1.92 -6.363,6.087c-71.029,71.029 -131.104,153.904 -164.824,227.392c-33.434,72.833 -38.413,129.979 -14.572,162.646l-328.691,328.762l14.046,14.046l328.725,-328.729c13.462,9.846 31.071,14.846 52.558,14.846l0.017,-0c84.341,-0 223.125,-79.884 337.5,-194.271c4.167,-4.167 4.866,-4.967 6.087,-6.367c0.662,-0.762 1.571,-1.821 4.308,-4.75l3.171,-3.387l-6.274,-52.246l93.633,-49.025l1.367,-1.904c11.379,-15.738 21.907,-31.559 31.282,-47.005c100.7,-165.675 132.196,-258.283 99.105,-291.375Zm-604.167,467.059c30.079,-65.542 81.905,-138.946 143.867,-204.229l-0,182.096l-162.209,162.204c-16.958,-26.967 -10.562,-77.067 18.342,-140.071Zm33.954,163.412c-15.675,0 -28.5,-3.125 -38.25,-9.295l161.734,-161.734l162.512,18.067c-102.213,91.65 -215.279,152.962 -285.996,152.962Zm539.55,-508.804c-18.245,42.709 -46.191,94.854 -85.433,159.421c-8.742,14.392 -18.504,29.121 -29.055,43.8l-101.624,53.208l6.816,56.704c-0.795,0.896 -1.282,1.45 -1.691,1.921c-0.829,0.946 -1.283,1.48 -5.113,5.304c-5.992,5.992 -12.025,11.867 -18.128,17.646l-163.868,-18.212l114.142,-114.146l-14.05,-14.046l-111.796,111.8l0.033,-182.533c1.321,-1.288 1.776,-1.696 2.409,-2.234c0.879,-0.762 2.1,-1.804 5.192,-4.704l105.074,-90.654c15.209,-10.97 30.471,-21.129 45.351,-30.179c9.766,-5.921 19.517,-11.75 29.054,-17.333l51.675,32.879l32.908,-78.925c59.229,-29.425 103.387,-44.334 131.267,-44.334c10.908,0 18.8,2.359 23.454,7.001c7.683,7.678 15.742,31.866 -16.617,107.616Z" style="fill:#005f8a;fill-rule:nonzero;"/></svg>