<?xml version="1.0" encoding="UTF-8" standalone="no"?><!DOCTYPE svg PUBLIC "-//W3C//DTD SVG 1.1//EN" "http://www.w3.org/Graphics/SVG/1.1/DTD/svg11.dtd"><svg width="100%" height="100%" viewBox="0 0 1667 1671" version="1.1" xmlns="http://www.w3.org/2000/svg" xmlns:xlink="http://www.w3.org/1999/xlink" xml:space="preserve" xmlns:serif="http://www.serif.com/" style="fill-rule:evenodd;clip-rule:evenodd;stroke-linejoin:round;stroke-miterlimit:2;"><rect id="Artboard3" x="0.473" y="2.473" width="1664.77" height="1664.77" style="fill:none;"/><rect x="1047.66" y="598.97" width="59.588" height="19.859" style="fill:#005f8a;fill-rule:nonzero;"/><path d="M1235.86,598.97c-3.662,-45.234 -28.987,-86.117 -67.937,-108.529c-10.759,-6.2 -19.775,-9.621 -27.425,-10.434l-208.821,-149.154l-92.563,0l0,19.858l86.184,0l180.729,129.101l-125.454,-0l-60.971,213.396l-250.067,263.25l-9.146,-0l0,9.632l-67.691,71.259l-242.759,266.667l195.396,-0l89.371,-89.375l164.696,-0l-0,109.229l19.858,-0l0,-109.229l79.442,-0c6.658,-0 13.283,-0.225 19.858,-0.65l0.017,109.896l19.854,-0l-0,-111.767c67.171,-8.596 129.283,-38.95 177.946,-87.629c58.154,-58.138 90.171,-135.434 90.171,-217.663c-0,-40.071 -3.338,-80.433 -9.93,-119.983l-8.445,-50.621c-0.459,-2.733 -0.7,-5.466 -0.7,-8.154c-0.051,-28.759 14.012,-54.475 44.741,-109.213l83.563,-0l-0,-19.854l-79.917,-0.033Zm-67.266,140.525l8.445,50.604c6.413,38.475 9.65,77.733 9.65,116.713c0,76.92 -29.962,149.237 -84.358,203.616c-54.375,54.392 -126.692,84.359 -203.629,84.359l-244.142,-0l102.217,-102.213l-14.046,-14.05l-116.246,116.263l-0.583,-0l0,0.583l-88.788,88.787l-142.237,0l212.287,-233.204l70.917,-74.658c110.708,-0.292 200.958,-4.021 266.421,-33.642c77.167,-34.929 113.104,-103.108 113.104,-214.583l-19.859,0c0,104.15 -31.283,164.746 -101.428,196.5c-58.305,26.383 -139.667,31.087 -239.275,31.787l240.345,-252.996l58.188,-203.692l141.471,0c2.654,0 8.904,1.042 20.983,7.993c34.942,20.1 57.063,57.678 58.396,98.762c-33.529,59.7 -48.858,87.254 -48.796,121.646c-0,3.758 0.325,7.616 0.963,11.425Z" style="fill:#005f8a;fill-rule:nonzero;"/></svg>