<?xml version="1.0" encoding="UTF-8" standalone="no"?><!DOCTYPE svg PUBLIC "-//W3C//DTD SVG 1.1//EN" "http://www.w3.org/Graphics/SVG/1.1/DTD/svg11.dtd"><svg width="100%" height="100%" viewBox="0 0 1671 1671" version="1.1" xmlns="http://www.w3.org/2000/svg" xmlns:xlink="http://www.w3.org/1999/xlink" xml:space="preserve" xmlns:serif="http://www.serif.com/" style="fill-rule:evenodd;clip-rule:evenodd;stroke-linejoin:round;stroke-miterlimit:2;"><rect id="Artboard5" x="2.812" y="3.32" width="1664.77" height="1664.77" style="fill:none;"/><path d="M1153.45,842.451l155.959,-96.141l-160.029,-98.65c-5.108,-16.08 -13.296,-30.796 -23.858,-43.459c13.1,-4.016 25.195,-11.246 34.991,-21.013c15.933,-15.949 24.708,-37.158 24.708,-59.683c0,-40.054 -28.449,-74.541 -67.108,-82.6c-15.25,-36.945 -51.412,-61.391 -91.779,-61.391c-40.362,0 -76.529,24.428 -91.779,61.391c-17.742,3.696 -33.921,13.088 -46.029,26.825c-13.592,15.413 -21.079,35.222 -21.079,55.775c-0,37.534 24.853,70.054 59.699,80.713c-18.666,22.396 -29.912,51.175 -29.912,82.537l-0,79.442l-397.217,-0l0,-109.229c0,-38.329 -31.187,-69.512 -69.516,-69.512c-38.329,-0 -69.517,31.183 -69.517,69.512l0,238.333l19.858,0l-0,-238.333c-0,-27.376 22.268,-49.654 49.659,-49.654c27.374,-0 49.658,22.262 49.658,49.654l0,148.946c0,146.141 93.341,270.879 223.533,317.77l-342.692,-0.016l0,139.029l854.005,-0l0,-139.029l-283.104,-0c119.191,-42.934 207.471,-151.104 221.549,-281.217Zm1.984,-167.725l116.134,71.584l-116.134,71.583l-0,-143.167Zm-268.129,-151.237c-0,-15.721 5.729,-30.876 16.096,-42.642c10.304,-11.671 24.417,-19.238 39.729,-21.287l6.07,-0.817l2.005,-5.791c11.033,-32.051 41.224,-53.584 75.112,-53.584c33.888,-0 64.08,21.533 75.117,53.584l2,5.791l6.071,0.817c31.837,4.278 55.841,31.753 55.841,63.929c0,17.237 -6.72,33.449 -18.895,45.637c-10.221,10.208 -23.112,16.555 -37.321,18.38l0.05,0.324c-22.446,-18.833 -51.333,-30.191 -82.846,-30.191c-31.508,0 -60.416,11.358 -82.846,30.191l0.05,-0.324c-32.063,-4.121 -56.233,-31.642 -56.233,-64.017Zm-54.609,262.55c52.022,-0 94.338,42.316 94.338,94.337c0,52.017 -42.316,94.334 -94.338,94.334l-59.583,-0c-52.02,-0 -94.337,-42.317 -94.337,-94.334l-0,-74.479c-0,-10.954 8.904,-19.858 19.858,-19.858l134.062,-0Zm-332.662,19.858l0,-19.858l164.254,-0c-3.4,5.841 -5.371,12.629 -5.371,19.858l0,74.479c0,62.971 51.221,114.192 114.196,114.192l59.583,-0c62.975,-0 114.196,-51.221 114.196,-114.192c0,-39.146 -19.808,-73.762 -49.937,-94.337l20.134,-0l-0,-99.3c-0,-60.238 49.008,-109.23 109.228,-109.23c60.222,0 109.23,49.009 109.23,109.23l-0,119.158c-0,175.208 -142.546,317.771 -317.776,317.771c-175.191,-0.017 -317.737,-142.563 -317.737,-317.771Zm695.117,436.929l-814.292,0l0,-99.3l814.292,0l-0,99.3Z" style="fill:#005f8a;fill-rule:nonzero;"/><rect x="1028.64" y="713.709" width="59.588" height="19.858" style="fill:#005f8a;fill-rule:nonzero;"/></svg>