<?xml version="1.0" encoding="UTF-8" standalone="no"?><!DOCTYPE svg PUBLIC "-//W3C//DTD SVG 1.1//EN" "http://www.w3.org/Graphics/SVG/1.1/DTD/svg11.dtd"><svg width="100%" height="100%" viewBox="0 0 1667 1667" version="1.1" xmlns="http://www.w3.org/2000/svg" xmlns:xlink="http://www.w3.org/1999/xlink" xml:space="preserve" xmlns:serif="http://www.serif.com/" style="fill-rule:evenodd;clip-rule:evenodd;stroke-linejoin:round;stroke-miterlimit:2;"><rect id="Artboard1" x="0" y="1.626" width="1664.77" height="1664.77" style="fill:none;"/><path d="M1219.33,630.355l0,-99.3l79.442,-0l-0,-19.858l-79.442,-0l0,-119.154l-258.187,0l-0,387.287l-258.188,-0.016c-15.283,-0 -30.142,1.837 -44.383,5.287l23.129,-154.246l-316.375,-0l-0,316.375l154.229,-23.129c-3.433,14.258 -5.271,29.117 -5.271,44.383l0,158.888l297.917,-0l-0,119.158l218.471,0l-0,-19.858l-79.442,-0l0,-99.546c115.871,-5.208 208.529,-101.087 208.529,-218.229l-0.016,-258.171l158.887,-0l0,79.446l19.854,0l0,-99.3l-119.154,-0.017Zm-258.187,168.817l-0,67.529c-0,66.796 -54.346,121.142 -121.142,121.142l-305.862,0.016l-0,-19.858c-0,-93.083 75.733,-168.817 168.816,-168.817l258.188,-0.012Zm-575.963,124.508l0,-273.454l273.454,-0l-21.108,140.804c-22.592,8.384 -43.133,20.967 -60.708,36.788l-75.375,-75.376l-14.046,14.047l75.375,75.375c-15.838,17.575 -28.421,38.133 -36.788,60.724l-140.804,21.092Zm446.863,302.509l-0,-99.3l99.3,-0l-0,99.3l-99.3,-0Zm109.241,-119.176l-407.145,0l-0,-99.3l305.862,0c77.75,0 141.013,-63.262 141.013,-141.012l-0,-67.529l158.887,-0l0,109.225c-0.017,109.525 -89.108,198.616 -198.617,198.616Zm198.6,-476.658l0,148.959l-158.883,-0l-0,-367.417l218.471,-0l-0,218.475l-59.588,-0.017Z" style="fill:#005f8a;fill-rule:nonzero;"/><rect x="1053.03" y="504.221" width="59.587" height="19.858" style="fill:#005f8a;fill-rule:nonzero;"/></svg>