<?xml version="1.0" encoding="UTF-8" standalone="no"?><!DOCTYPE svg PUBLIC "-//W3C//DTD SVG 1.1//EN" "http://www.w3.org/Graphics/SVG/1.1/DTD/svg11.dtd"><svg width="100%" height="100%" viewBox="0 0 1667 1667" version="1.1" xmlns="http://www.w3.org/2000/svg" xmlns:xlink="http://www.w3.org/1999/xlink" xml:space="preserve" xmlns:serif="http://www.serif.com/" style="fill-rule:evenodd;clip-rule:evenodd;stroke-linejoin:round;stroke-miterlimit:2;"><rect id="Artboard2" x="1.72" y="1.626" width="1664.77" height="1664.77" style="fill:none;"/><path d="M1063.6,497.075l-49.658,-0l0.016,-59.567l-258.187,0l-0,208.525l-139.029,-0c-76.317,-0 -145.638,45.054 -176.642,114.812l-208.008,471.08l180.225,-0l148.958,-148.959l105.125,0l0,188.671l-79.442,0l0,19.858l178.742,0l-0,-19.858l-79.442,0l0,-188.671l89.371,0l0,-297.9l109.229,-0c38.329,-0 69.517,-31.187 69.517,-69.516l0,-29.784c0,-27.379 22.262,-49.658 49.654,-49.658l168.817,-0l-0,79.442l19.858,-0l0,-89.371c0,-71.192 -57.913,-129.104 -129.104,-129.104Zm0,19.875c56.883,-0 103.729,43.716 108.759,99.3l-158.417,-0l0.016,-99.3l49.642,-0Zm-482.471,546.158l75.329,-75.325l0.013,-123.275l-19.854,-0l-0,115.054l-232.521,232.504l-132.029,0l265.233,-253.954l-0,-93.604l-19.858,-0l-0,85.142l-240.788,230.533l181.609,-411.279c27.8,-62.567 90.008,-102.996 158.479,-102.996l139.029,-0l-0,397.216l-174.642,-0.016Zm353.388,-377.342l-0,29.784c-0,27.374 -22.267,49.658 -49.659,49.658l-109.229,0l0,-307.846l218.475,-0l0,159.604c-33.646,4.834 -59.587,33.838 -59.587,68.8Z" style="fill:#005f8a;fill-rule:nonzero;"/><rect x="855.066" y="556.662" width="59.587" height="19.858" style="fill:#005f8a;fill-rule:nonzero;"/></svg>