<?xml version="1.0" encoding="UTF-8" standalone="no"?><!DOCTYPE svg PUBLIC "-//W3C//DTD SVG 1.1//EN" "http://www.w3.org/Graphics/SVG/1.1/DTD/svg11.dtd"><svg width="100%" height="100%" viewBox="0 0 1671 1667" version="1.1" xmlns="http://www.w3.org/2000/svg" xmlns:xlink="http://www.w3.org/1999/xlink" xml:space="preserve" xmlns:serif="http://www.serif.com/" style="fill-rule:evenodd;clip-rule:evenodd;stroke-linejoin:round;stroke-miterlimit:2;"><rect id="Artboard19" x="2.812" y="0.304" width="1664.77" height="1664.77" style="fill:none;"/><path d="M839.28,1176.84l26.954,-91.717l49.787,-3.271c1.843,0.046 3.662,0.063 5.505,0.063c65.72,-0 126.966,-29.442 168.032,-80.775c30.421,-38.021 47.167,-85.775 47.167,-134.459l0,-191.991l95.772,-95.768l-95.934,-53.304c-3.092,-57.47 -50.846,-103.286 -109.083,-103.286l-9.926,-0c-60.236,-0 -109.228,49.004 -109.228,109.224l-0,112.842c-0,30.745 -17.092,58.383 -44.613,72.154l-540.967,272.754c-33.287,14.942 -48.745,53.109 -35.174,87.013c10.353,25.879 35.057,42.608 62.941,42.608c0.734,-0 1.446,-0.017 2.179,-0.033l0.163,-0l372.77,-24.525l-26.35,82.712l26.451,79.396l-343.722,0l0,19.859l834.151,-0l-0,-19.859l-350.325,0l-26.55,-79.637Zm234.75,-188.105c-37.288,46.6 -92.871,73.326 -152.538,73.326c-1.809,-0 -3.596,-0.034 -5.421,-0.084l-0.454,-0.017l-374.741,24.659l-0,-185.075l18.782,-9.471l29.313,29.312c18.184,18.179 39.437,32.388 63.167,42.204c23.75,9.83 48.813,14.813 74.513,14.813c57.895,0 112.387,-25.492 149.479,-69.937c37.096,-44.45 52.441,-102.621 42.074,-159.571l-8.433,-46.405c0.896,-1.27 1.759,-2.553 2.604,-3.875c52.072,63.788 123.913,108.042 204.479,125.817l0,42.234c0,44.208 -15.203,87.549 -42.824,122.07Zm-145.851,-457.179c0,-49.283 40.092,-89.371 89.375,-89.371l9.926,0c49.288,0 89.374,40.088 89.374,89.371l0,5.846l82.976,46.092l-82.976,82.974l0,137.601c-77.379,-18.084 -145.966,-62.096 -194.728,-125.101c3.958,-10.854 6.053,-22.525 6.053,-34.57l0,-112.842Zm-55.566,202.738c7.409,-3.696 14.212,-8.221 20.317,-13.396l5.725,31.575c9.295,51.154 -4.475,103.383 -37.792,143.296c-33.3,39.908 -82.225,62.792 -134.212,62.792c-23.08,-0 -45.588,-4.476 -66.909,-13.296c-21.309,-8.826 -40.383,-21.584 -56.725,-37.909l-24.671,-24.675l294.267,-148.387Zm-520.734,364.762c-20.245,0.6 -38.378,-11.379 -45.883,-30.112c-9.6,-24.038 1.384,-51.092 25.034,-61.605l0.229,-0.095l189.762,-95.688l0,176.367l-169.142,11.133Zm368.279,77.896l26.759,-83.983l98.225,-6.463l-26.662,90.692l26.4,79.279l-98.225,0l-26.497,-79.525Z" style="fill:#005f8a;fill-rule:nonzero;"/><rect x="1039.28" y="504.151" width="19.859" height="59.588" style="fill:#005f8a;fill-rule:nonzero;"/></svg>