<?xml version="1.0" encoding="UTF-8" standalone="no"?><!DOCTYPE svg PUBLIC "-//W3C//DTD SVG 1.1//EN" "http://www.w3.org/Graphics/SVG/1.1/DTD/svg11.dtd"><svg width="100%" height="100%" viewBox="0 0 1671 1671" version="1.1" xmlns="http://www.w3.org/2000/svg" xmlns:xlink="http://www.w3.org/1999/xlink" xml:space="preserve" xmlns:serif="http://www.serif.com/" style="fill-rule:evenodd;clip-rule:evenodd;stroke-linejoin:round;stroke-miterlimit:2;"><rect id="Artboard13" x="2.487" y="2.335" width="1664.77" height="1664.77" style="fill:none;"/><path d="M988.456,593.628l59.587,0l-0,19.859l-59.583,-0l-0.004,-19.859Z" style="fill:#005f8a;fill-rule:nonzero;"/><path d="M1177.94,653.216c-0.279,-0 -0.537,0.017 -0.818,0.017l-0,-48.209c-0,-49.35 -25.863,-95.004 -67.562,-119.42l110.289,-160.088l-428.697,0l120.949,181.429l-51.691,180.921l-326.936,344.142l-242.76,266.683l195.559,-0l84.666,-89.371l169.255,0l-0,109.229l19.858,0l0,-109.229l79.442,0c6.659,0 13.283,-0.229 19.858,-0.65l0,109.879l19.853,0l0,-111.77c67.171,-8.592 129.285,-38.946 177.946,-87.63c58.154,-58.137 90.171,-135.429 90.171,-217.658c0,-40.071 -3.336,-80.437 -9.928,-119.988l-8.447,-50.616c-0.458,-2.738 -0.7,-5.471 -0.7,-8.154c-0.033,-13.2 5.143,-25.654 14.567,-35.092c9.359,-9.375 21.826,-14.55 35.109,-14.55l78.628,-0l-0,-19.858l-78.611,-0.017Zm-349.675,-307.846l353.807,0l-90.674,131.625c-4.978,-1.675 -9.487,-2.521 -13.558,-2.521l-156.447,0l-2.116,7.404l-91.012,-136.508Zm-131.177,701.904l-2.262,2.379c-18.644,13.496 -40.72,20.638 -63.883,20.638c-28.803,-0 -56.228,-11.379 -76.604,-31.408l97.329,-102.463c24.463,22.054 56.822,34.571 90.363,34.571c10.416,-0 20.67,-1.154 30.582,-3.437c-36.737,38.787 -66.386,70.087 -75.525,79.72Zm110.031,-116.129c-19.076,13.075 -41.551,19.988 -65.088,19.988c-28.467,-0 -55.908,-10.53 -76.675,-29.1l118.783,-125.034c24.021,23.371 56.25,36.621 90.037,36.621c9.639,0 19.11,-1.075 28.306,-3.125c-29.102,30.713 -63.234,66.733 -95.363,100.65Zm-329.397,347.688l-142.069,-0l205.169,-225.388c24.046,23.421 56.289,36.7 90.121,36.7c9.704,0 19.254,-1.087 28.521,-3.171l-181.742,191.859Zm565.385,-173.746c-54.38,54.412 -126.693,84.375 -203.613,84.375l-249.738,-0l118.813,-125.421l-0.051,-0.05c0.914,-0.863 1.933,-1.954 3.209,-3.288l278.467,-293.929c20.524,-21.679 49.428,-34.116 79.313,-34.116l39.666,-0c0.08,0.508 0.129,0.995 0.224,1.5l8.452,50.6c6.41,38.479 9.649,77.737 9.649,116.716c-0.034,76.921 -29.98,149.234 -84.391,203.613Zm85.661,-431.492c-10.775,10.804 -17.578,24.463 -19.662,39.208l-39.599,0c-35.305,0 -69.468,14.696 -93.718,40.317c-0.632,0.667 -15.574,16.438 -38.216,40.346c-18.555,13.267 -40.446,20.279 -63.379,20.279c-28.664,0 -56.004,-11.279 -76.351,-31.15l80.355,-84.587l58.154,-203.68l141.47,0c2.655,0 8.905,1.042 20.98,7.992c36.071,20.754 58.467,60.108 58.467,102.721l0,51.3c-10.646,3.287 -20.412,9.146 -28.501,17.254Z" style="fill:#005f8a;fill-rule:nonzero;"/></svg>