<?xml version="1.0" encoding="UTF-8" standalone="no"?><!DOCTYPE svg PUBLIC "-//W3C//DTD SVG 1.1//EN" "http://www.w3.org/Graphics/SVG/1.1/DTD/svg11.dtd"><svg width="100%" height="100%" viewBox="0 0 1667 1671" version="1.1" xmlns="http://www.w3.org/2000/svg" xmlns:xlink="http://www.w3.org/1999/xlink" xml:space="preserve" xmlns:serif="http://www.serif.com/" style="fill-rule:evenodd;clip-rule:evenodd;stroke-linejoin:round;stroke-miterlimit:2;"><rect id="Artboard24" x="0.473" y="3.55" width="1664.77" height="1664.77" style="fill:none;"/><path d="M1201.95,450.359l-302.687,-0c-1.333,-0 -2.654,0.017 -3.971,0.067c-49.267,1.495 -92.938,34.537 -108.691,82.225c-1.142,3.437 -2.263,7.016 -3.355,10.629c-20.196,66.554 -16.862,137.271 9.425,199.121c4.071,9.554 8.513,18.554 13.296,27.004c-33.2,-13.884 -70.537,-21.129 -109.975,-21.129c-56.429,-0 -133.221,56.3 -228.254,167.32c-69.729,81.459 -124.367,164.013 -124.904,164.842l-6.867,10.417l11.684,4.362c7.929,2.946 175.604,65.054 303.37,78.629l-0.017,150.375l19.859,0l-0,-148.666c8.642,0.571 17.037,0.879 25.113,0.879c14.208,-0 28.287,-0.863 41.845,-2.538l0.634,-0.083c10.891,-1.367 21.454,-3.254 31.691,-5.646l0.017,156.054l19.854,0l0,-139.845c6.625,0.52 13.283,0.816 19.858,0.816c136.879,0 248.259,-111.362 248.259,-248.258c-0,-30.567 -5.696,-64.129 -16.454,-97.054c-17.451,-53.338 -39.017,-112.959 -66.767,-150.767c-1.35,-1.837 -0.958,-4.346 0.896,-5.712c11.425,-8.413 21.321,-18.588 29.429,-30.242c6.592,-9.454 11.829,-19.646 15.637,-30.338l84.005,25.7l5.808,-18.995l-84.617,-25.88c1.496,-7.908 2.263,-16.012 2.263,-24.2c-0,-17.22 -3.338,-33.92 -9.896,-49.608c-10.5,-25.196 -28.275,-45.737 -50.296,-59.621l224.221,0l92.35,115.446l15.508,-12.404l-98.271,-122.9Zm-505.958,317.775c50.554,-0 97.217,12.629 135.059,36.525c-19.271,17.546 -41.113,34.779 -65.105,51.333c-24.754,17.042 -54.217,27.554 -85.416,30.388c-0.196,0.016 -0.376,0.033 -0.572,0.05c-39.808,3.646 -91.374,1.479 -153.433,-6.4c70.1,-73.438 128.125,-111.896 169.467,-111.896Zm-213.054,160.237c9.162,-10.691 18.133,-20.85 26.954,-30.5c49.138,6.738 92.35,10.138 129.05,10.138c15.496,-0 29.837,-0.6 42.987,-1.804l0.146,-0.017c0.163,-0.017 0.292,-0.017 0.342,-0.033c34.442,-3.109 67.238,-14.813 94.809,-33.804c26.091,-18.005 49.737,-36.817 70.458,-56.009c26.333,20.542 45.833,46.471 57.745,76.384c-28.741,54.462 -96.158,98.195 -134.375,119.666c-22.216,12.479 -47.945,19.088 -74.395,19.088l-0.65,-0c-73.992,-0 -177.313,-26.871 -255.583,-51.154c13.183,-16.83 27.491,-34.425 42.512,-51.955Zm253.679,225.667l-0.633,0.083c-12.925,1.625 -26.388,2.459 -39.992,2.459c-108.366,-0 -282.65,-59.079 -329.508,-75.696c10.629,-15.55 32.533,-46.875 60.921,-83.846c80.37,25.263 189.858,54.288 268.587,54.288l0.667,-0c29.849,-0 58.937,-7.471 84.116,-21.638l-6.237,-11.083l6.237,11.083c44.205,-24.846 100.471,-63.312 132.68,-111.717c3.746,15.463 5.666,31.771 5.666,48.763c0,101.221 -69.925,172.954 -182.504,187.304Zm263.509,-616.55c5.549,13.263 8.366,27.392 8.366,41.958c-0,22.459 -6.754,44.025 -19.55,62.371c-6.867,9.863 -15.25,18.488 -24.917,25.6c-10.612,7.829 -12.908,22.838 -5.125,33.446c29.604,40.35 53.642,113.821 63.896,145.183c10.125,30.959 15.48,62.388 15.48,90.871c-0,125.942 -102.459,228.4 -228.401,228.4c-6.575,0 -13.233,-0.308 -19.858,-0.879l0,-1.675c35.725,-11.15 66.604,-28.887 90.921,-52.442c37.971,-36.8 58.037,-86.458 58.037,-143.604c0,-74.887 -33.821,-137.875 -95.262,-177.554c-12.629,-14.796 -23.65,-33.121 -32.762,-54.558c-24.463,-57.567 -27.559,-123.471 -8.709,-185.579c1.025,-3.384 2.1,-6.788 3.221,-10.171c13.137,-39.796 49.479,-67.367 90.429,-68.604c1.109,-0.034 2.234,-0.05 3.354,-0.05c44.271,0.016 83.871,26.416 100.88,67.287Z" style="fill:#005f8a;fill-rule:nonzero;"/><rect x="869.482" y="569.517" width="59.587" height="19.858" style="fill:#005f8a;fill-rule:nonzero;"/></svg>