<?xml version="1.0" encoding="UTF-8" standalone="no"?><!DOCTYPE svg PUBLIC "-//W3C//DTD SVG 1.1//EN" "http://www.w3.org/Graphics/SVG/1.1/DTD/svg11.dtd"><svg width="100%" height="100%" viewBox="0 0 1667 1671" version="1.1" xmlns="http://www.w3.org/2000/svg" xmlns:xlink="http://www.w3.org/1999/xlink" xml:space="preserve" xmlns:serif="http://www.serif.com/" style="fill-rule:evenodd;clip-rule:evenodd;stroke-linejoin:round;stroke-miterlimit:2;"><rect id="Artboard8" x="0" y="3.961" width="1664.77" height="1664.77" style="fill:none;"/><path d="M1084.29,1087.5l95.33,71.505l-317.771,-0l-0,-129.267c84.616,-2.538 160.433,-37.534 214.371,-99.2c37.566,-42.954 63.345,-97.121 75.52,-157.163l174.546,-110.237l-172.054,-127.346c-12.129,-40.071 -43.246,-71.938 -82.829,-85.138c17.412,-12.65 28.775,-33.154 28.775,-56.283c-0,-38.329 -31.184,-69.517 -69.517,-69.517c-38.329,0 -69.512,31.188 -69.512,69.517c-0,23.129 11.358,43.633 28.775,56.283c-51.271,17.105 -88.363,65.525 -88.363,122.475l0,109.23l-218.667,-0c-5.241,-132.309 -114.487,-238.329 -248.049,-238.329l-69.513,-0l-0,158.887c-0,54.75 44.546,99.3 99.3,99.3l20.05,-0c2.913,85.17 43.117,166.225 114.029,229.212c67.871,60.305 156.025,95.817 243.279,98.325l0,129.251l-225.079,-0l-116.521,-87.388l-11.916,15.883l108.579,81.429l-108.579,81.429l11.916,15.888l116.521,-87.388l225.079,0l0,139.03l19.859,-0l-0,-139.03l317.771,0l-95.33,71.5l11.917,15.888l129.75,-97.317l-129.75,-97.312l-11.917,15.883Zm206.855,-425.666l-135.009,85.253c2.392,-17.887 3.613,-36.195 3.613,-54.816l-0,-119.158c-0,-2.946 -0.13,-5.875 -0.325,-8.771l131.721,97.492Zm-310.125,-267.463c-0,-27.375 22.266,-49.658 49.658,-49.658c27.379,-0 49.658,22.266 49.658,49.658c0,27.375 -22.262,49.659 -49.658,49.659c-27.392,-0 -49.658,-22.284 -49.658,-49.659Zm-546.175,69.512c78.062,0 147.104,39.376 188.316,99.3l-237.958,0l-0,-99.3l49.642,0Zm-49.642,139.034l-0,-19.858l250.179,-0c16.262,29.737 26.108,63.458 27.654,99.3l-198.387,-0c-43.817,-0 -79.446,-35.646 -79.446,-79.442Zm119.337,99.3l416.896,-0l0,-129.104c0,-60.238 49.004,-109.23 109.225,-109.23c60.238,0 109.229,49.009 109.229,109.23l0,119.158c0,184.129 -121.108,317.775 -287.97,317.775c-181.526,0 -341.18,-142.708 -347.38,-307.829Z" style="fill:#005f8a;fill-rule:nonzero;"/><rect x="993.445" y="582.744" width="59.587" height="19.858" style="fill:#005f8a;fill-rule:nonzero;"/></svg>