<?xml version="1.0" encoding="UTF-8" standalone="no"?><!DOCTYPE svg PUBLIC "-//W3C//DTD SVG 1.1//EN" "http://www.w3.org/Graphics/SVG/1.1/DTD/svg11.dtd"><svg width="100%" height="100%" viewBox="0 0 1671 1667" version="1.1" xmlns="http://www.w3.org/2000/svg" xmlns:xlink="http://www.w3.org/1999/xlink" xml:space="preserve" xmlns:serif="http://www.serif.com/" style="fill-rule:evenodd;clip-rule:evenodd;stroke-linejoin:round;stroke-miterlimit:2;"><rect id="Artboard27" x="2.487" y="1.077" width="1664.77" height="1664.77" style="fill:none;"/><path d="M1170.71,332.606l-553.439,0l-0,351.447c-43.804,9.741 -83.494,34.212 -112.554,69.61l-85.787,104.447l-134.492,37.149l3.555,11.607c3.649,11.881 35.785,116.406 43.263,131.347c5.72,11.456 12.255,22.183 19.383,31.865c60.665,82.356 147.04,127.354 244.007,127.354c2.905,-0 5.815,-0.035 8.739,-0.113c16.16,-0.44 32.117,-2.175 47.78,-5.097l-0.019,142.094l282.366,-0l0,-23.288l-124.236,-0l-0,-116.705c169.167,-6.167 304.953,-149.977 304.953,-325.905l-0,-2.752l-67.774,-139.763l-0,-90.454l91.934,-0l246.893,-72.758l0.019,-8.782c0,-122.027 -96.261,-221.303 -214.591,-221.303Zm191.36,205.688l-223.668,-65.901l-91.929,0l-0.018,-116.494l124.235,0c100.782,0 183.622,80.489 191.38,182.395Zm-722.217,-182.395l384.015,0l-0,256.257l-256.002,0l-128.013,-99.002l-0,-157.255Zm33.88,955.129l-0,-116.48l112.942,0l0,116.48l-112.942,-0Zm417.89,-439.898c-1.422,165.748 -132.6,300.13 -293.64,300.13l-79.38,0c38.23,-16.954 73.219,-41.845 102.985,-73.828c57.609,-61.873 89.337,-143.193 89.337,-229.034l-22.581,-0c-0,138.619 -91.361,257.962 -214.592,294.348l-0.019,-294.328l-22.587,-0l0,299.978c-15.734,3.245 -31.894,5.171 -48.372,5.63c-93.005,2.581 -176.181,-39.347 -234.141,-118.038c-6.35,-8.612 -12.165,-18.196 -17.293,-28.439c-4.554,-9.096 -24.511,-71.751 -38.225,-116.099l118.497,-32.745l90.355,-109.999c27.696,-33.717 66.22,-56.282 108.465,-63.535l9.44,-1.622l-0.019,-161.282l120.477,93.182l263.538,-0l-0,95.933l67.755,139.748Zm43.614,-258.974l-88.782,0l-0,-116.474l88.782,-0l197.654,58.247l-197.654,58.227Z" style="fill:#005f8a;fill-rule:nonzero;"/><rect x="831.863" y="472.393" width="67.774" height="23.293" style="fill:#005f8a;fill-rule:nonzero;"/></svg>