<?xml version="1.0" encoding="UTF-8" standalone="no"?><!DOCTYPE svg PUBLIC "-//W3C//DTD SVG 1.1//EN" "http://www.w3.org/Graphics/SVG/1.1/DTD/svg11.dtd"><svg width="100%" height="100%" viewBox="0 0 1667 1671" version="1.1" xmlns="http://www.w3.org/2000/svg" xmlns:xlink="http://www.w3.org/1999/xlink" xml:space="preserve" xmlns:serif="http://www.serif.com/" style="fill-rule:evenodd;clip-rule:evenodd;stroke-linejoin:round;stroke-miterlimit:2;"><rect id="Artboard16" x="1.72" y="2.777" width="1664.77" height="1664.77" style="fill:none;"/><path d="M1335.05,510.554l-123.404,-92.563l-146.484,146.488l-238.329,-357.488l-175,175.001l-253.55,-115.25l0,164.37c0,96.713 43.654,189.113 122.9,260.171c75.996,68.15 175.98,107.242 274.317,107.242l35.612,-0l-357.487,357.487l206.838,0l148.958,-148.958l115.037,0.017c169.746,-0 307.846,-138.1 307.846,-307.846l0,-85.25l83.563,-83.563l55.45,0.017l-0,-19.858l-56.267,-0.017Zm-511.292,-272.379l212.321,318.475l-364.912,-165.871l152.591,-152.604Zm-397.283,262.45l191.404,-0l164.488,-37.5l161.312,73.325l-209.862,93.262l-243.688,0.017c-30.287,-38.508 -52.425,-82.392 -63.654,-129.104Zm-8.317,-203.042l334.359,151.983l-136.867,31.205l-193.246,-0c-2.783,-16.292 -4.246,-32.879 -4.246,-49.659l0,-133.529Zm814.276,308.171l-0,93.487c-0,158.792 -129.184,287.975 -287.976,287.975l-123.275,0l-148.958,148.959l-150.667,-0l357.488,-357.488l-83.546,0c-112.971,0 -218.146,-51.304 -288.604,-129.104l231.133,0l229.821,-102.129l97.929,44.513l147.738,-147.738l103.112,77.329l-84.195,84.196Z" style="fill:#005f8a;fill-rule:nonzero;"/><rect x="1204.51" y="491.651" width="19.859" height="59.588" style="fill:#005f8a;fill-rule:nonzero;"/></svg>