<?xml version="1.0" encoding="UTF-8" standalone="no"?><!DOCTYPE svg PUBLIC "-//W3C//DTD SVG 1.1//EN" "http://www.w3.org/Graphics/SVG/1.1/DTD/svg11.dtd"><svg width="100%" height="100%" viewBox="0 0 1667 1671" version="1.1" xmlns="http://www.w3.org/2000/svg" xmlns:xlink="http://www.w3.org/1999/xlink" xml:space="preserve" xmlns:serif="http://www.serif.com/" style="fill-rule:evenodd;clip-rule:evenodd;stroke-linejoin:round;stroke-miterlimit:2;"><rect id="Artboard9" x="1.72" y="3.961" width="1664.77" height="1664.77" style="fill:none;"/><path d="M1275.1,445.472l-50.067,-0c-2.325,-30.729 -15.362,-59.329 -37.383,-81.367c-24.412,-24.379 -56.837,-37.808 -91.291,-37.808c-53.046,-0 -101.484,33.254 -120.526,82.733c-21.125,54.946 -43.57,101.967 -68.637,143.75l-17.658,29.425c-91.096,48.354 -194.35,164.517 -256.509,274.025c-24.758,43.604 -62.096,121.108 -43.687,164.371l-191.063,278.875l166.617,0l118.783,-148.958l134.634,-0l-0,109.225l19.858,-0l-0,-109.225l79.441,-0c6.709,-0 13.334,-0.33 19.859,-0.896l0,110.137l19.858,0l0,-112.742c80.338,-14.016 144.417,-67.075 177.946,-100.604c54.779,-54.749 90.167,-146.416 90.167,-233.512l-0,-228.417l99.3,0l-0,79.442l19.858,-0l0,-148.959c0,-38.312 -31.171,-69.495 -69.5,-69.495Zm-350.896,117.529c25.671,-42.792 48.6,-90.821 70.15,-146.846c16.129,-41.858 57.113,-69.983 102.005,-69.983c29.166,-0 56.608,11.358 77.245,31.979c20.617,20.642 31.984,48.079 31.984,77.246l-0,250.767c-15.984,4.933 -32.65,7.42 -49.659,7.42c-41.016,0 -80.208,-14.779 -110.97,-41.633c1.137,-12.613 1.741,-25.229 1.741,-37.792c0,-34.85 -23.225,-64.7 -56.463,-72.625c-7.016,-1.675 -14.487,-2.521 -22.183,-2.521c-14.746,0 -30.487,3.188 -46.875,9.046l3.025,-5.058Zm-273.925,303.025c78.73,-138.688 225.196,-287.175 317.759,-287.175c6.149,-0 12.058,0.667 17.579,1.988c23.875,5.678 41.208,28.091 41.208,53.304c-0,174.216 -114.063,342.383 -259.666,382.846c-37.5,10.416 -77.084,15.703 -117.675,15.703c-20.201,0 -33.692,-5.499 -40.155,-16.358c-14.242,-23.841 1.075,-80.041 40.95,-150.308Zm-94.954,413.592l-119.367,-0l165.655,-241.796c11.054,9.779 27.083,14.729 47.871,14.729c32.258,-0 63.933,-3.209 94.512,-9.554l-188.671,236.621Zm565.904,-247.267c-36.721,36.721 -111.979,98.309 -203.633,98.309l-218.096,-0l76.121,-95.459c74.854,-21.729 143.654,-75.246 194.058,-151.042c37.992,-57.129 62.908,-122.525 72.529,-188.837c32.634,24.691 72.346,38.121 113.721,38.121c16.925,-0 33.575,-2.246 49.659,-6.642l-0,86.083c-0,82.096 -33.126,168.246 -84.359,219.467Zm104.213,-567.025l49.658,-0c27.379,-0 49.658,22.267 49.658,49.658l0,49.658l-99.299,0l-0.017,-99.316Z" style="fill:#005f8a;fill-rule:nonzero;"/><rect x="1066.56" y="445.472" width="59.587" height="19.858" style="fill:#005f8a;fill-rule:nonzero;"/></svg>