<?xml version="1.0" encoding="UTF-8" standalone="no"?><!DOCTYPE svg PUBLIC "-//W3C//DTD SVG 1.1//EN" "http://www.w3.org/Graphics/SVG/1.1/DTD/svg11.dtd"><svg width="100%" height="100%" viewBox="0 0 1667 1667" version="1.1" xmlns="http://www.w3.org/2000/svg" xmlns:xlink="http://www.w3.org/1999/xlink" xml:space="preserve" xmlns:serif="http://www.serif.com/" style="fill-rule:evenodd;clip-rule:evenodd;stroke-linejoin:round;stroke-miterlimit:2;"><rect id="Artboard21" x="0.179" y="1.151" width="1664.77" height="1664.77" style="fill:none;"/><path d="M1356.26,380.895l3.158,-37.566l-227.85,169.971c-10.758,8.008 -24.642,10.141 -37.041,5.712l-2.801,-1.008c-142.316,-51.692 -299.091,-51.692 -441.454,0.016l-1.254,0.454c-0.504,0.18 -1.008,0.359 -1.4,0.505c-12.5,4.462 -26.383,2.329 -37.142,-5.679l-227.85,-169.971l3.159,37.583c11.033,130.338 10.954,248.971 -0.229,362.691c-0.73,7.538 -1.121,15.3 -1.121,23.051c-0,62.337 24.266,120.929 68.342,165.004c44.074,44.075 102.687,68.346 165.007,68.346l79.555,-0l173.683,245.604l173.667,-245.592l79.554,-0.012c128.679,-0 233.367,-104.688 233.367,-233.367c-0,-7.75 -0.376,-15.513 -1.121,-23.062c-11.184,-113.705 -11.262,-232.342 -0.229,-362.68Zm-485.238,830.304l-154.604,-218.65c51.529,-34.604 103.495,-52.133 154.604,-52.133c51.109,0 103.075,17.529 154.621,52.133l-154.621,218.65Zm253.221,-231.054l-81.592,0c-56.783,-39.533 -114.5,-59.587 -171.629,-59.587c-57.129,-0 -114.858,20.054 -171.629,59.587l-81.591,0c-57.034,0 -110.646,-22.2 -150.98,-62.533c-40.317,-40.317 -62.516,-93.929 -62.516,-150.958c-0,-7.096 0.342,-14.196 1.024,-21.113c11.118,-113.067 11.38,-230.875 0.784,-359.913l192.496,143.588c16.095,11.996 36.912,15.154 55.795,8.434l1.255,-0.459c0.504,-0.179 1.008,-0.358 1.445,-0.521c137.959,-50.112 289.892,-50.095 427.801,-0.016c0.503,0.179 1.008,0.374 1.512,0.554l1.354,0.487c18.78,6.692 39.584,3.533 55.68,-8.462l192.495,-143.588c-10.595,129.038 -10.333,246.842 0.784,359.913c0.683,6.9 1.025,14.012 1.025,21.112c0,117.709 -95.788,213.475 -213.513,213.475Z" style="fill:#005f8a;fill-rule:nonzero;"/><path d="M662.489,652.441c-54.75,0 -99.3,44.55 -99.3,99.304c0,54.75 44.55,99.3 99.3,99.3c54.754,0 99.3,-44.55 99.3,-99.3c-0,-54.754 -44.546,-99.304 -99.3,-99.304Zm-0,178.746c-43.8,-0 -79.442,-35.629 -79.442,-79.442c0,-43.8 35.642,-79.446 79.442,-79.446c43.8,0 79.446,35.646 79.446,79.446c-0,43.813 -35.646,79.442 -79.446,79.442Z" style="fill:#005f8a;fill-rule:nonzero;"/><path d="M1079.56,652.441c-54.754,0 -99.3,44.55 -99.3,99.304c0,54.75 44.546,99.3 99.3,99.3c54.75,0 99.3,-44.55 99.3,-99.3c0,-54.754 -44.55,-99.304 -99.3,-99.304Zm0,178.746c-43.8,-0 -79.446,-35.629 -79.446,-79.442c-0,-43.8 35.646,-79.446 79.446,-79.446c43.8,0 79.442,35.646 79.442,79.446c-0,43.813 -35.642,79.442 -79.442,79.442Z" style="fill:#005f8a;fill-rule:nonzero;"/></svg>