<?xml version="1.0" encoding="UTF-8" standalone="no"?><!DOCTYPE svg PUBLIC "-//W3C//DTD SVG 1.1//EN" "http://www.w3.org/Graphics/SVG/1.1/DTD/svg11.dtd"><svg width="100%" height="100%" viewBox="0 0 1667 1671" version="1.1" xmlns="http://www.w3.org/2000/svg" xmlns:xlink="http://www.w3.org/1999/xlink" xml:space="preserve" xmlns:serif="http://www.serif.com/" style="fill-rule:evenodd;clip-rule:evenodd;stroke-linejoin:round;stroke-miterlimit:2;"><rect id="Artboard14" x="0.179" y="2.335" width="1664.77" height="1664.77" style="fill:none;"/><path d="M1299.83,1159.66l-0,-347.558c-0,-103.417 -37.449,-203.204 -105.453,-280.971c-65.446,-74.837 -154.722,-124.479 -252.181,-140.413c-2.227,-36.329 -32.487,-65.204 -69.37,-65.204c-36.884,0 -67.121,28.875 -69.367,65.204c-88.474,14.405 -168.737,55.596 -232.57,119.451c-80.646,80.629 -125.063,187.858 -125.063,301.933l-0,347.558l-59.587,0l0,139.033l973.179,0l0,-139.033l-59.588,0Zm-19.857,-347.558l0,347.558l-158.889,0l0,-526.317c0,-66.325 -25.828,-128.679 -72.721,-175.537c-9.666,-9.667 -20.066,-18.471 -31.087,-26.367c154.492,58.983 262.697,209.684 262.697,380.663Zm-635.547,158.887l129.096,0l-0,188.671l-129.096,0l0,-188.671Zm456.806,-258.204l-129.106,0l-0,-228.383c-0,-25.325 -9.42,-49.171 -26.591,-67.613c33.301,11.167 63.733,30 88.784,55.079c43.15,43.117 66.913,100.459 66.913,161.492l-0,79.425Zm-169.21,-281.362c13.088,14.583 20.251,33.221 20.251,52.979l0,228.4l-158.888,-0l-0,-228.4c-0,-19.792 7.275,-38.508 20.241,-52.979c12.264,19.858 34.216,33.12 59.2,33.12c25,0 46.942,-13.262 59.196,-33.12Zm-158.5,52.979l-0,228.4l-129.096,-0l0,-79.442c0,-98.875 63.251,-185.629 155.697,-216.554c-17.025,18.263 -26.601,42.221 -26.601,67.596Zm-129.096,248.258l456.787,0l0,218.475l-456.787,-0.016l0,-218.459Zm148.959,238.329l158.888,0l0,188.671l-158.888,0l-0,-188.671Zm178.741,0l129.106,0l-0,188.671l-129.106,0l-0,-188.671Zm-99.3,-625.616c27.38,-0 49.658,22.267 49.658,49.658c0,27.375 -22.262,49.658 -49.658,49.658c-27.374,0 -49.658,-22.266 -49.658,-49.658c0.012,-27.379 22.284,-49.658 49.658,-49.658Zm-407.145,466.729c-0,-108.771 42.354,-211 119.258,-287.888c41.488,-41.504 90.229,-72.95 143.779,-93.116c-63.9,45.525 -104.155,120.037 -104.155,202.262l0,526.3l-158.882,0l-0,-347.558Zm873.879,466.716l-933.446,0l0,-99.3l933.429,0l0.017,99.3Z" style="fill:#005f8a;fill-rule:nonzero;"/></svg>