<?xml version="1.0" encoding="UTF-8" standalone="no"?><!DOCTYPE svg PUBLIC "-//W3C//DTD SVG 1.1//EN" "http://www.w3.org/Graphics/SVG/1.1/DTD/svg11.dtd"><svg width="100%" height="100%" viewBox="0 0 1667 1671" version="1.1" xmlns="http://www.w3.org/2000/svg" xmlns:xlink="http://www.w3.org/1999/xlink" xml:space="preserve" xmlns:serif="http://www.serif.com/" style="fill-rule:evenodd;clip-rule:evenodd;stroke-linejoin:round;stroke-miterlimit:2;"><rect id="Artboard23" x="1.72" y="2.703" width="1664.77" height="1664.77" style="fill:none;"/><rect x="894.799" y="611.232" width="59.588" height="19.858" style="fill:#005f8a;fill-rule:nonzero;"/><path d="M1192.7,362.974l0,-19.858c-84.279,-0 -153.404,65.954 -158.546,148.958l-99.429,0c2.112,-52.587 20.833,-106.508 49.9,-142.737l-15.496,-12.438c-31.754,39.567 -52.129,98.242 -54.279,155.175l-46.858,0c-15.429,0 -30.421,2.133 -44.696,6.121c-5.271,-18.017 -7.958,-36.783 -7.958,-55.779c-0,-40.184 11.395,-60.921 35.595,-95.604l-16.291,-11.359c-23.667,33.917 -39.159,59.684 -39.159,106.963c0,21.208 3.025,42.158 9.017,62.291c-46.517,19.334 -83.042,59.634 -98.017,112.025l-0.375,1.338l0,89.029l-477.179,609.179l193.846,0l74.596,-89.371l208.725,0l-0,109.229l19.854,0l0,-109.229l19.858,0c27.196,0 53.842,-3.516 79.442,-10.32l-0,119.549l19.858,0l0,-125.554c44.076,-14.975 84.488,-39.975 118.359,-73.862c58.154,-58.138 90.171,-135.433 90.171,-217.675c-0,-39.617 -43.605,-158.788 -48.309,-171.484c-0.375,-2.441 -0.554,-4.883 -0.554,-7.275c-0.033,-13.2 5.142,-25.65 14.567,-35.091c9.358,-9.375 21.825,-14.55 35.108,-14.55l118.341,-0l0,-65.546c0,-40.525 -32.957,-73.483 -73.487,-73.483l-44.875,-0l0,19.854l44.875,-0c29.575,-0 53.634,24.058 53.634,53.629l-0,45.688l-98.488,-0c-0.275,-0 -0.542,0.016 -0.812,0.016l-0,-168.833c0.045,-76.625 62.399,-138.996 139.062,-138.996Zm-158.892,556.104c0,76.925 -29.962,149.238 -84.354,203.613c-54.379,54.395 -126.691,84.358 -203.612,84.358l-231.871,0l352.996,-422.9c20.508,-21.55 49.316,-33.887 79.083,-33.887l39.667,-0c0.079,0.504 0.129,1.012 0.229,1.516l0.162,0.925l0.325,0.879c13.167,35.5 47.375,134.425 47.375,165.496Zm-28.479,-227.879c-10.775,10.804 -17.579,24.462 -19.662,39.208l-39.6,0c-35.3,0 -69.467,14.696 -93.717,40.313l-0.213,0.229l-438.637,525.471l-143.783,-0l454.15,-579.767l2.116,-2.704l0,-93.079c19.221,-65.238 76.121,-108.938 142.025,-108.938l165.821,0l-0.021,161.996c-10.641,3.304 -20.391,9.146 -28.479,17.271Z" style="fill:#005f8a;fill-rule:nonzero;"/></svg>