<?xml version="1.0" encoding="UTF-8" standalone="no"?><!DOCTYPE svg PUBLIC "-//W3C//DTD SVG 1.1//EN" "http://www.w3.org/Graphics/SVG/1.1/DTD/svg11.dtd"><svg width="100%" height="100%" viewBox="0 0 1667 1667" version="1.1" xmlns="http://www.w3.org/2000/svg" xmlns:xlink="http://www.w3.org/1999/xlink" xml:space="preserve" xmlns:serif="http://www.serif.com/" style="fill-rule:evenodd;clip-rule:evenodd;stroke-linejoin:round;stroke-miterlimit:2;"><rect id="Artboard10" x="0.473" y="0.641" width="1664.77" height="1664.77" style="fill:none;"/><path d="M1235.17,499.264l-0,-19.859l-228.405,-0l0,-50.196c0,-54.458 -44.304,-98.746 -98.745,-98.746c-40.609,0 -76.596,24.367 -91.684,62.075l-0.212,0.505l-31.15,112.471l-435.142,-153.421l153.483,276.27l-208.691,0l334.783,194.4l0.017,312.046l-178.746,0l0,168.817l69.517,0c65.412,0 127.358,-16.309 179.183,-47.171c53.792,-32.029 95.296,-79.183 120.117,-136.392c46.566,-22.12 88.362,-54.329 122.25,-95.183c68.341,-82.404 96.241,-189.975 76.546,-295.2l-11.15,-89.225l84.683,-141.191l143.346,-0Zm-842.529,-111.021l387.025,136.458l-28.709,103.662l-224.937,0l-133.379,-240.12Zm411.666,259.979l-52.958,158.887l-109.329,0l-273.634,-158.887l435.921,-0Zm-284.129,635.546l-49.658,-0l-0,-129.1l194.92,-0c43.8,-0 86.525,-7.913 126.401,-22.888c-50.388,95.625 -150.242,151.988 -271.663,151.988Zm145.262,-148.959l-16.174,0l0.012,-307.846l99.3,0l-0,134.7l49.433,146.275c-41.358,17.546 -86.329,26.871 -132.571,26.871Zm261.005,-122.608c-30.746,37.063 -68.375,66.587 -110.271,87.388l-47.721,-141.197l0,-139.745l55.925,-167.788l83.088,27.7l81.024,-27.004l10.122,80.908l0.099,0.604c18.7,99.48 -7.65,201.222 -72.266,279.134Zm63.771,-382.163l-82.75,27.588l-95.655,-31.883l-0.879,2.62l-39.371,0l63.396,-228.954c12.175,-29.833 40.788,-49.088 73.063,-49.088c43.508,0 78.892,35.384 78.892,78.888l-0,70.055l81.77,-0l-78.466,130.774Z" style="fill:#005f8a;fill-rule:nonzero;"/><rect x="900.982" y="425.072" width="19.859" height="59.588" style="fill:#005f8a;fill-rule:nonzero;"/></svg>