<?xml version="1.0" encoding="UTF-8" standalone="no"?><!DOCTYPE svg PUBLIC "-//W3C//DTD SVG 1.1//EN" "http://www.w3.org/Graphics/SVG/1.1/DTD/svg11.dtd"><svg width="100%" height="100%" viewBox="0 0 1667 1667" version="1.1" xmlns="http://www.w3.org/2000/svg" xmlns:xlink="http://www.w3.org/1999/xlink" xml:space="preserve" xmlns:serif="http://www.serif.com/" style="fill-rule:evenodd;clip-rule:evenodd;stroke-linejoin:round;stroke-miterlimit:2;"><rect id="Artboard25" x="0.354" y="0.23" width="1664.77" height="1664.77" style="fill:none;"/><rect x="1048.77" y="633.271" width="59.588" height="19.858" style="fill:#005f8a;fill-rule:nonzero;"/><path d="M1287.07,692.842l-79.408,0l-0.017,-73.616c-0,-90.821 -73.892,-164.7 -164.696,-164.7c-55.683,-0 -107.146,27.783 -137.696,74.333l-381.333,581.054l-11.392,0l0,17.367l-197.137,300.408l203.27,0l89.375,-178.746l132.892,0l0,109.229l19.859,0l-0,-109.229l99.3,0l-0,109.229l19.858,0l-0,-109.408c78.496,-2.471 151.95,-34.196 207.729,-90.004c58.154,-58.138 90.171,-135.433 90.171,-217.658c0,-40.075 -3.337,-80.438 -9.929,-119.988l-8.451,-50.621c-0.453,-2.733 -0.699,-5.466 -0.699,-8.154c-0.03,-13.2 5.146,-25.65 14.571,-35.092c9.357,-9.375 21.825,-14.55 35.104,-14.55l78.629,0l-0,-19.854Zm-456.771,158.884c-0,76.662 -62.367,139.033 -139.029,139.033c-19.792,-0 -39.388,-4.267 -57.292,-12.354l150.684,-229.625c29.133,26.337 45.637,63.266 45.637,102.946Zm-207.32,143.458c21.219,10.108 44.641,15.429 68.307,15.429c87.617,0 158.888,-71.271 158.888,-158.887c-0,-46.4 -19.742,-89.534 -54.459,-119.742l46.255,-70.475c98.733,27.346 167.092,116.812 167.092,220.021c-0,125.946 -102.459,228.4 -228.405,228.4l-232.974,-0.017l75.296,-114.729Zm450.666,149.546c-54.379,54.391 -126.692,84.358 -203.63,84.358l-274.254,0l-89.371,178.742l-154.216,-0l182.47,-278.042l245.997,0c136.883,0 248.262,-111.362 248.262,-248.258c0,-38.559 -8.629,-75.571 -25.195,-109.229l135.983,-0c0.083,0.504 0.133,0.991 0.229,1.495l8.445,50.605c6.413,38.475 9.655,77.733 9.655,116.716c-0.016,76.909 -29.984,149.234 -84.375,203.613Zm114.142,-448.779c-10.642,3.304 -20.392,9.162 -28.501,17.266c-10.77,10.809 -17.575,24.463 -19.658,39.209l-146.858,-0c-5.325,-8.692 -11.217,-17.121 -17.662,-25.242c-31.25,-39.308 -74.105,-68.408 -121.759,-83.025l68.521,-104.413c26.854,-40.933 72.121,-65.362 121.079,-65.362c79.867,-0 144.838,64.975 144.838,144.842l-0,76.725Z" style="fill:#005f8a;fill-rule:nonzero;"/></svg>